<svg width="14" height="13" viewBox="0 0 14 13" fill="none" xmlns="http://www.w3.org/2000/svg">
<path d="M6.99996 0C9.40331 0 11.3633 1.88271 11.3633 4.19137C11.3633 6.49998 9.40335 8.36032 6.99996 8.36032C4.59657 8.36032 2.6366 6.49998 2.6366 4.19137C2.6366 1.88275 4.59657 0 6.99996 0ZM6.99996 7.6879C9.00664 7.6879 10.6634 6.11898 10.6634 4.16887C10.6634 2.21892 9.00664 0.672372 6.99996 0.672372C4.99328 0.672372 3.33652 2.24129 3.33652 4.19141C3.33652 6.14136 4.99328 7.6879 6.99996 7.6879ZM10.0801 7.73278C11.9933 8.78622 13.3 10.7585 13.3 13H14C14 10.5569 12.6467 8.4276 10.6167 7.23967C10.4533 7.41916 10.2666 7.59833 10.0801 7.73278ZM0 13H0.700046C0.700046 10.7363 2.00668 8.76381 3.92011 7.73278C3.73342 7.5758 3.57017 7.41899 3.40677 7.23967C1.35338 8.42776 0 10.557 0 13Z" fill="#171C22"/>
</svg>
