<svg width="137" height="37" viewBox="0 0 137 37" fill="none" xmlns="http://www.w3.org/2000/svg">
<path d="M128.732 8.35883H116.659C116.41 8.35917 116.171 8.45921 115.995 8.63696C115.819 8.81472 115.72 9.05567 115.72 9.30688V12.5204C115.72 12.7716 115.819 13.0125 115.995 13.1903C116.171 13.3681 116.41 13.4681 116.659 13.4684H128.904C129.451 13.4684 129.976 13.6877 130.363 14.0779C130.75 14.4681 130.967 14.9974 130.967 15.5492V21.6381C130.967 22.19 130.75 22.7192 130.363 23.1094C129.976 23.4996 129.451 23.7189 128.904 23.7189H116.659C116.41 23.7189 116.171 23.8186 115.995 23.9962C115.819 24.1737 115.72 24.4145 115.72 24.6656V27.9168C115.72 28.0412 115.744 28.1644 115.791 28.2794C115.838 28.3943 115.907 28.4987 115.995 28.5867C116.082 28.6746 116.185 28.7444 116.299 28.7919C116.413 28.8394 116.535 28.8638 116.659 28.8636H128.727C129.688 28.8638 130.641 28.6728 131.53 28.3015C132.418 27.9302 133.226 27.3859 133.906 26.6997C134.586 26.0135 135.126 25.1988 135.494 24.3022C135.862 23.4056 136.051 22.4447 136.051 21.4742V15.7495C136.051 13.7905 135.28 11.9116 133.908 10.5258C132.535 9.13997 130.673 8.36055 128.732 8.35883Z" fill="#171C22"/>
<path d="M113.185 14.4204V21.4833C113.184 23.4432 112.412 25.3228 111.038 26.7085C109.665 28.0942 107.802 28.8727 105.859 28.8727H100.861C100.738 28.8728 100.616 28.8483 100.503 28.8008C100.389 28.7533 100.286 28.6836 100.199 28.5957L98.0202 26.3979L97.9261 26.2678V27.6854C97.9271 27.9683 97.8273 28.2421 97.6449 28.457C97.4624 28.6718 97.2095 28.8134 96.9323 28.8558H91.0645C90.9124 28.8675 90.7629 28.8714 90.6095 28.8714H85.2058V29.1575C85.2058 31.1173 84.4341 32.9968 83.0606 34.3826C81.687 35.7684 79.824 36.5469 77.8815 36.5469H69.678C67.7356 36.5465 65.8728 35.7679 64.4993 34.3822C63.1258 32.9965 62.354 31.1172 62.3536 29.1575V19.543C62.3536 19.4186 62.378 19.2954 62.4252 19.1804C62.4724 19.0655 62.5417 18.961 62.629 18.8731C62.7162 18.7852 62.8198 18.7155 62.9338 18.668C63.0478 18.6205 63.17 18.5961 63.2934 18.5963H66.516C66.6392 18.5961 66.7613 18.6205 66.8753 18.668C66.9892 18.7155 67.0927 18.7852 67.1799 18.8732C67.2671 18.9611 67.3362 19.0656 67.3833 19.1805C67.4304 19.2955 67.4546 19.4186 67.4544 19.543V29.3318C67.4544 29.8836 67.6717 30.4129 68.0585 30.8031C68.4453 31.1933 68.9699 31.4126 69.5169 31.4126H78.0645C78.6115 31.4126 79.1361 31.1933 79.5229 30.8031C79.9097 30.4129 80.127 29.8836 80.127 29.3318V28.8675H76.002C75.8787 28.8677 75.7565 28.8433 75.6425 28.7958C75.5285 28.7483 75.4249 28.6786 75.3376 28.5907C75.2504 28.5027 75.1811 28.3983 75.1339 28.2834C75.0866 28.1684 75.0623 28.0452 75.0623 27.9208V24.6695C75.061 24.5161 75.0972 24.3647 75.1675 24.2286C75.2379 24.0925 75.3403 23.976 75.4658 23.8892C75.622 23.7759 75.8097 23.7154 76.002 23.7163H90.7848C90.8286 23.7163 90.8699 23.7163 90.9137 23.7163H92.8473V15.5557C92.8473 15.0039 92.63 14.4746 92.2432 14.0844C91.8564 13.6942 91.3318 13.4749 90.7848 13.4749H82.0477C81.8621 13.4744 81.6808 13.4185 81.5267 13.3142C81.3726 13.2099 81.2525 13.062 81.1817 12.8889C81.1108 12.7159 81.0923 12.5256 81.1285 12.342C81.1647 12.1583 81.254 11.9896 81.3851 11.8571L82.495 10.7387L84.5742 8.63584C84.7502 8.459 84.9883 8.35945 85.2368 8.35883H90.6095C91.43 8.35763 92.2449 8.49567 93.02 8.76719C93.0238 8.76831 93.0278 8.76831 93.0316 8.76719C94.4634 9.27528 95.7036 10.2192 96.581 11.4687C97.4584 12.7182 97.9298 14.2117 97.93 15.743V21.4781C97.93 22.2038 97.9467 23.6682 97.93 23.7189H99.7063C99.8072 23.7312 99.9088 23.7377 100.01 23.7384H106.047C106.594 23.7384 107.119 23.5192 107.505 23.1289C107.892 22.7387 108.11 22.2095 108.11 21.6576V14.4204C108.11 14.1693 108.208 13.9285 108.384 13.7509C108.56 13.5734 108.799 13.4736 109.048 13.4736H112.237C112.36 13.4735 112.483 13.4978 112.597 13.5453C112.711 13.5928 112.814 13.6626 112.901 13.7505C112.989 13.8384 113.058 13.9428 113.105 14.0578C113.152 14.1727 113.177 14.296 113.177 14.4204" fill="#171C22"/>
<path d="M94.4547 31.4203H91.2489C90.9996 31.4203 90.7606 31.5202 90.5844 31.698C90.4081 31.8758 90.3091 32.117 90.3091 32.3684V35.6014C90.3091 35.8529 90.4081 36.094 90.5844 36.2718C90.7606 36.4496 90.9996 36.5495 91.2489 36.5495H94.4547C94.7038 36.5491 94.9426 36.4491 95.1188 36.2714C95.295 36.0937 95.3941 35.8527 95.3944 35.6014V32.3684C95.3941 32.1171 95.295 31.8761 95.1188 31.6984C94.9426 31.5207 94.7038 31.4207 94.4547 31.4203Z" fill="#171C22"/>
<path d="M109.704 31.4203H101.414C101.165 31.4207 100.926 31.5207 100.75 31.6984C100.574 31.8761 100.475 32.1171 100.475 32.3684V35.6014C100.475 35.8527 100.574 36.0937 100.75 36.2714C100.926 36.4491 101.165 36.5491 101.414 36.5495H109.704C109.953 36.5491 110.192 36.4491 110.368 36.2714C110.544 36.0937 110.643 35.8527 110.644 35.6014V32.3684C110.643 32.1171 110.544 31.8761 110.368 31.6984C110.192 31.5207 109.953 31.4207 109.704 31.4203Z" fill="#171C22"/>
<path d="M16.492 18.5715H22.7168C23.0083 18.5721 23.2934 18.4857 23.5363 18.3232C23.7792 18.1607 23.969 17.9293 24.0819 17.6583C24.1947 17.3872 24.2256 17.0884 24.1705 16.7997C24.1155 16.5109 23.977 16.2451 23.7726 16.0355L21.7758 13.9821C21.6381 13.8408 21.4737 13.7287 21.2924 13.6523C21.1111 13.5759 20.9166 13.5368 20.7201 13.5373H16.4753C15.6109 13.5354 14.7528 13.6859 13.9397 13.9821C11.0548 15.0368 9.00526 17.5688 9.00526 20.8747V24.7449C9.00561 25.0679 9.13301 25.3775 9.35949 25.6057C9.58596 25.834 9.89299 25.9622 10.2131 25.9622H15.6194C16.1935 25.9611 16.7445 26.1901 17.1513 26.5989C17.5582 27.0076 17.7874 27.5625 17.7888 28.1418V29.3369C17.7888 29.8888 17.5715 30.418 17.1847 30.8083C16.7979 31.1985 16.2733 31.4177 15.7263 31.4177H7.1658C6.6188 31.4177 6.0942 31.1985 5.70741 30.8083C5.32062 30.418 5.10333 29.8888 5.10333 29.3369V19.543C5.10333 19.4185 5.07901 19.2953 5.03177 19.1803C4.98453 19.0654 4.91529 18.961 4.82801 18.873C4.74074 18.7851 4.63713 18.7154 4.52313 18.6679C4.40912 18.6204 4.28696 18.596 4.16361 18.5962H0.941002C0.81755 18.5959 0.695244 18.6201 0.581091 18.6675C0.466939 18.7149 0.363183 18.7846 0.275769 18.8726C0.188355 18.9605 0.119001 19.065 0.0716791 19.18C0.0243578 19.2951 -4.65868e-07 19.4184 0 19.543L0 29.1535C0 31.1133 0.77167 32.9928 2.14525 34.3786C3.51883 35.7644 5.38181 36.5429 7.32435 36.5429H15.5214C17.4026 36.542 19.2112 35.8103 20.5719 34.4998C21.9326 33.1893 22.7408 31.4005 22.829 29.5047H22.8367V29.3356C22.8367 29.2771 22.8457 29.2186 22.8457 29.1588V28.1418H22.8354C22.8304 26.4906 22.277 24.8887 21.2636 23.5921C20.2501 22.2956 18.8352 21.3791 17.2448 20.9891C16.7916 20.9014 16.331 20.8578 15.8694 20.859H14.0983C14.1083 20.5095 14.1964 20.1668 14.3561 19.8564C14.5646 19.4703 14.8724 19.1482 15.2472 18.9239C15.622 18.6996 16.0498 18.5814 16.4856 18.5819" fill="#171C22"/>
<path d="M45.5033 5.71105H48.6795C48.8016 5.71122 48.9226 5.68709 49.0355 5.64005C49.1484 5.593 49.251 5.52396 49.3375 5.43688C49.4239 5.34979 49.4925 5.24637 49.5393 5.13252C49.5861 5.01867 49.6101 4.89664 49.6101 4.7734V1.569C49.6101 1.44576 49.5861 1.32372 49.5393 1.20988C49.4925 1.09603 49.4239 0.992605 49.3375 0.90552C49.251 0.818434 49.1484 0.749394 49.0355 0.702349C48.9226 0.655305 48.8016 0.631178 48.6795 0.631349H45.5033C45.2568 0.631349 45.0204 0.730136 44.8461 0.90598C44.6718 1.08182 44.5739 1.32032 44.5739 1.569V4.7734C44.5739 5.02208 44.6718 5.26057 44.8461 5.43642C45.0204 5.61226 45.2568 5.71105 45.5033 5.71105Z" fill="#171C22"/>
<path d="M57.1047 13.9769C56.7172 12.3645 55.8036 10.9304 54.5107 9.90511C53.2178 8.87979 51.6208 8.32282 49.9763 8.32373H44.3045C42.3604 8.32407 40.4962 9.10343 39.1216 10.4904C37.7471 11.8773 36.975 13.7583 36.975 15.7196L36.9891 20.7382V20.8227C36.9891 20.947 37.0135 21.07 37.0608 21.1848C37.1082 21.2995 37.1776 21.4036 37.265 21.4912L39.4448 23.6851L39.5737 23.78H38.1622C38.1274 23.78 38.0951 23.78 38.0603 23.7891H34.5464C33.8242 23.7888 33.1318 23.4991 32.6212 22.9838C32.1107 22.4685 31.8239 21.7698 31.8239 21.0412V6.59278C31.8239 6.34341 31.7257 6.10425 31.551 5.92792C31.3762 5.75159 31.1391 5.65253 30.892 5.65253H27.7428C27.4959 5.65287 27.2591 5.75209 27.0846 5.92838C26.9101 6.10467 26.8121 6.34363 26.8121 6.59278V21.5484C26.8128 23.4913 27.578 25.3545 28.9395 26.7285C30.301 28.1026 32.1475 28.8752 34.0733 28.8766H36.2247C36.2041 28.8766 36.1925 28.8766 36.2002 28.8831H52.2759C53.5895 28.8835 54.8496 28.3577 55.7792 27.4213C56.7087 26.4849 57.2319 25.2145 57.2336 23.8893V15.3659C57.2361 14.8997 57.1929 14.4345 57.1047 13.9769ZM52.1767 21.9385C52.1767 22.4269 51.9843 22.8953 51.642 23.2407C51.2997 23.586 50.8355 23.78 50.3514 23.78H42.0113V15.596C42.0116 15.016 42.2401 14.4598 42.6467 14.0497C43.0532 13.6395 43.6045 13.409 44.1794 13.4086H50.0033C50.5779 13.409 51.1289 13.6394 51.5352 14.0493C51.9415 14.4592 52.1699 15.0151 52.1702 15.5947L52.1767 21.9385Z" fill="#171C22"/>
</svg>
